# xmcd
#
# Track frame offsets: 
#        150
#        18795
#        41142
#        55592
#        73300
#        91975
#        121850
#        140680
#        165440
#        182785
#        201627
#
# Disc length: 2951 seconds
#
# Revision: 4
# Processed by: cddbd v1.5.2PL0 Copyright (c) Steve Scherf et al.
# Submitted via: ExactAudioCopyFreeDBPlugin 1.0
#
DISCID=9b0b850b
DTITLE=LA Blues Authority Vol. IV - Fit For A. King
DYEAR=1993
DGENRE=Blues
TTITLE0=Leslie West - Crosscut Saw
TTITLE1=Craig Erickson - Floodin' In California
TTITLE2=Steve Hunter - Night Stomp
TTITLE3=Kevin Russell - Oh Pretty Woman
TTITLE4=Tony Spinner - Down Don't Bother Me
TTITLE5=Pat Travers - The Sky is Crying
TTITLE6=Jon Butcher - Killing Floor
TTITLE7=Frank Marino - I'll Play the Blues for You
TTITLE8=Rick Derringer - Born Under a Bad Sign
TTITLE9=Ricky Medlocke - Wrapped Up In Love, Again
TTITLE10=Kevin Russell, Rick Derringer, Pat Travers, Michael Onesko - 
TTITLE10=Albert's Jam
EXTD=
EXTT0=
EXTT1=
EXTT2=
EXTT3=
EXTT4=
EXTT5=
EXTT6=
EXTT7=
EXTT8=
EXTT9=
EXTT10=
PLAYORDER=
